<!-- todo: make currentColor work -->
<svg width="320" height="320" viewBox="0 0 320 320" fill="#818cf8" xmlns="http://www.w3.org/2000/svg">
<path fill-rule="evenodd" clip-rule="evenodd" d="M160 0C71.6344 0 0 71.6344 0 160C0 248.366 71.6344 320 160 320C248.366 320 320 248.366 320 160C320 71.6344 248.366 0 160 0ZM190.564 227.082C191.724 231.837 191.65 236.804 190.34 241.985C187.783 252.099 182.829 258.721 175.477 261.849C168.125 264.977 159.885 265.388 150.757 263.081C141.136 260.649 133.25 255.506 127.099 247.652C121.133 240.107 119.459 231.155 122.078 220.793C124.634 210.679 129.465 204.026 136.571 200.836C143.923 197.708 151.916 197.235 160.55 199.417C165.484 200.664 169.984 202.589 174.051 205.192C178.364 207.857 181.904 210.982 184.672 214.569C187.687 218.218 189.651 222.389 190.564 227.082ZM195.564 120.082C197.638 129.53 197.552 138.694 195.307 147.575C192.563 158.43 187.361 165.513 179.7 168.826C172.223 172.448 163.797 173.074 154.423 170.704C144.062 168.085 135.898 163.003 129.931 155.459C123.902 148.161 122.229 139.208 124.91 128.6C133.124 126.214 139.613 122.868 144.376 118.56C149.077 114.5 151.957 110.372 153.017 106.178C154.452 100.504 153.203 94.0212 149.273 86.7287C145.342 79.4362 139.747 71.4605 132.487 62.8016L145.48 50.3383C152.81 55.6031 159.983 62.0092 166.999 69.5566C174.077 76.8573 180.073 84.8032 184.988 93.3943C189.903 101.985 193.428 110.881 195.564 120.082Z" />
</svg>
